<?xml version="1.0" standalone="no"?>
<!DOCTYPE svg PUBLIC "-//W3C//DTD SVG 20010904//EN"
 "http://www.w3.org/TR/2001/REC-SVG-20010904/DTD/svg10.dtd">
<svg version="1.0" xmlns="http://www.w3.org/2000/svg"
 width="744.000000pt" height="744.000000pt" viewBox="0 0 744.000000 744.000000"
 preserveAspectRatio="xMidYMid meet">
<metadata>
Created by potrace 1.16, written by Peter Selinger 2001-2019
</metadata>
<g transform="translate(0.000000,744.000000) scale(0.100000,-0.100000)"
fill="#000000" stroke="none">
<path d="M2504 6935 c-4 -8 -1 -43 5 -78 10 -58 68 -421 91 -567 6 -36 17
-108 26 -160 8 -52 24 -153 34 -225 10 -71 21 -137 24 -145 8 -19 45 -304 40
-309 -2 -2 -119 11 -261 28 -142 17 -355 42 -473 55 -118 14 -301 35 -406 47
-184 21 -224 21 -224 0 0 -8 139 -183 160 -201 3 -3 62 -72 130 -155 69 -82
127 -152 130 -155 3 -3 108 -129 234 -280 127 -151 247 -295 268 -319 21 -24
38 -47 38 -51 0 -4 -33 -14 -72 -23 -40 -9 -194 -44 -343 -78 -148 -33 -301
-68 -340 -76 -38 -8 -76 -21 -84 -28 -19 -18 -16 -22 140 -159 186 -165 569
-506 609 -543 19 -18 38 -33 43 -33 20 0 1 -20 -63 -65 -39 -28 -142 -102
-230 -165 -87 -63 -184 -132 -215 -153 -76 -53 -71 -66 35 -92 47 -12 157 -41
245 -64 88 -24 198 -52 243 -63 46 -12 86 -27 89 -33 2 -7 -21 -136 -51 -286
-58 -286 -62 -314 -46 -324 5 -3 81 8 167 26 183 37 245 47 291 48 l32 1 0
-164 c0 -91 4 -167 9 -170 5 -3 41 8 79 24 39 17 75 30 79 30 5 0 27 -26 50
-58 139 -189 392 -366 608 -422 109 -29 364 -40 383 -17 10 11 14 69 15 213
l2 198 110 13 c193 21 431 106 583 207 135 89 353 327 416 451 31 63 61 91
107 99 47 8 120 57 155 103 43 57 73 140 74 205 0 60 -9 88 -48 152 -23 36
-24 47 -19 120 4 45 13 110 21 146 43 188 42 167 13 301 -15 68 -34 201 -42
294 -19 205 -27 246 -72 355 -44 107 -95 195 -179 307 -188 249 -299 349 -443
399 -40 14 -101 46 -139 74 -72 52 -121 73 -277 117 -77 22 -121 28 -194 28
l-93 0 5 230 c3 181 9 254 26 342 l22 113 -20 112 c-11 62 -23 143 -27 180 -7
70 -21 103 -39 90 -11 -8 -62 -79 -170 -237 -91 -134 -115 -165 -129 -165 -6
0 -31 19 -56 43 -25 23 -79 71 -120 107 -41 36 -88 77 -105 92 -16 14 -39 35
-51 45 -244 211 -575 501 -649 569 -89 80 -130 114 -139 114 -4 0 -9 -7 -12
-15z m306 -296 c69 -64 181 -166 250 -229 69 -62 179 -163 245 -225 66 -61
145 -133 175 -160 30 -28 73 -67 95 -87 22 -21 45 -38 52 -38 6 0 32 26 56 58
25 31 57 71 71 87 14 17 52 62 84 102 31 40 61 72 66 73 4 0 6 -55 2 -122 -3
-68 -6 -201 -6 -295 l0 -173 -45 0 c-68 0 -261 -29 -345 -52 -215 -59 -432
-203 -545 -363 -127 -180 -254 -546 -284 -820 -27 -246 -43 -633 -37 -855 l6
-225 -43 -18 c-108 -44 -167 -133 -167 -251 0 -39 5 -89 11 -110 25 -91 112
-174 217 -206 l57 -18 12 -68 c6 -38 21 -107 33 -154 31 -120 31 -122 -10
-132 -65 -14 -433 -59 -438 -53 -4 3 23 121 58 263 35 141 64 273 65 291 0 34
-2 36 -60 54 -78 24 -368 112 -468 142 -43 13 -81 25 -83 28 -3 2 38 31 90 63
53 33 131 82 176 110 44 28 112 71 151 95 121 75 134 84 137 100 2 9 -39 51
-105 105 -59 49 -128 107 -154 129 -25 22 -59 51 -75 65 -110 93 -316 267
-407 343 -59 50 -104 94 -100 98 5 3 89 21 188 38 99 18 216 39 260 47 44 7
132 23 195 34 193 34 220 41 220 53 0 7 -33 53 -73 103 -99 126 -679 875 -795
1030 l-34 44 25 0 c14 0 110 -11 213 -25 395 -53 632 -85 724 -99 202 -31 290
-40 301 -29 6 6 5 41 -6 104 -18 114 -165 1288 -165 1320 0 21 3 20 43 -17 23
-22 98 -92 167 -155z m1090 -1294 l0 -235 -22 -5 c-37 -8 -168 -35 -227 -46
-30 -6 -67 -9 -83 -7 -15 3 -28 1 -28 -3 0 -4 26 -11 57 -15 43 -5 85 -1 175
18 65 14 120 23 123 20 3 -3 5 -22 5 -43 l0 -37 -112 -28 c-105 -26 -128 -28
-316 -28 -111 0 -196 -3 -190 -7 7 -3 61 -12 120 -19 133 -16 259 -8 388 24
52 13 98 22 103 19 10 -6 9 -151 -2 -158 -5 -3 -63 -17 -128 -32 -113 -25
-135 -26 -496 -32 l-379 -6 -19 -24 c-14 -17 -19 -36 -17 -60 5 -61 42 -71
318 -88 318 -19 563 -13 650 15 36 12 68 22 73 22 9 0 9 -382 0 -1073 -3 -290
-10 -527 -14 -527 -15 0 -62 93 -81 159 -12 43 -21 119 -25 219 -4 103 -10
151 -17 149 -7 -2 -12 -53 -14 -142 -4 -212 29 -337 113 -429 l35 -39 0 -122
0 -122 -172 -11 c-185 -13 -288 -34 -431 -91 -81 -32 -157 -76 -157 -89 0 -20
16 -17 111 19 117 44 203 74 241 83 23 5 30 1 50 -32 39 -64 89 -111 154 -148
59 -33 63 -37 74 -86 23 -94 59 -172 100 -213 l39 -40 21 -229 c12 -126 18
-236 15 -244 -8 -22 -235 -10 -333 18 -270 76 -540 300 -658 546 -50 104 -129
352 -148 464 -41 246 -66 430 -82 595 -35 370 -14 1040 41 1325 28 143 98 364
155 486 104 223 245 358 485 465 121 54 307 94 453 98 l52 1 0 -235z m0 -651
c0 -64 -1 -65 -32 -78 -18 -8 -69 -22 -113 -31 -68 -15 -110 -17 -300 -11
-312 9 -525 22 -557 35 -23 9 -28 17 -28 45 0 56 18 61 230 60 102 0 271 -2
375 -4 175 -3 198 -1 295 23 58 14 111 25 118 26 8 1 12 -18 12 -65z m346 16
c364 -92 653 -330 824 -678 106 -217 152 -525 130 -867 -20 -309 -70 -441
-250 -665 -88 -109 -148 -166 -240 -232 -190 -135 -448 -229 -660 -240 l-55
-3 -3 232 -2 233 172 2 173 3 0 35 c0 31 -6 39 -53 70 -69 47 -142 72 -224 78
l-68 5 0 158 c0 101 4 159 10 159 20 0 50 65 50 106 0 35 -6 47 -36 73 -33 30
-36 37 -44 114 -5 45 -16 126 -24 181 -14 82 -15 123 -6 240 5 77 10 231 10
341 0 110 3 312 7 449 l6 248 86 -7 c47 -4 136 -20 197 -35z m-1581 -1537 c4
-49 17 -159 29 -245 l22 -158 -26 0 c-32 0 -114 51 -152 94 -16 17 -35 53 -43
80 -37 123 0 242 90 293 68 38 72 35 80 -64z m2652 18 c56 -53 76 -95 77 -161
0 -99 -63 -189 -174 -245 -28 -14 -50 -24 -50 -22 0 2 11 35 24 74 24 71 42
188 50 318 5 83 3 75 19 75 8 0 32 -17 54 -39z m-1155 -570 c65 -22 138 -68
138 -87 0 -9 -36 -13 -155 -13 l-155 -2 0 61 0 60 58 0 c33 0 84 -9 114 -19z
m-274 -235 c2 -206 0 -237 -12 -227 -19 16 -55 92 -76 161 -16 49 -24 59 -81
99 -67 46 -98 77 -130 126 -28 44 -24 53 27 61 76 11 197 22 234 20 l35 -1 3
-239z"/>
<path d="M3512 4489 c3 -8 22 -24 42 -35 97 -55 183 -156 217 -256 26 -78 18
-83 -134 -84 -298 -4 -599 -32 -747 -70 -30 -8 -58 -14 -64 -14 -5 0 -7 32 -3
78 6 89 32 156 84 220 33 40 38 72 13 72 -16 0 -50 -40 -88 -103 -115 -191
-67 -459 116 -646 94 -96 258 -159 377 -146 171 19 261 58 356 155 76 77 112
144 134 250 58 284 -63 547 -269 586 -31 5 -38 4 -34 -7z m262 -425 c32 -12 9
-169 -40 -264 -35 -69 -121 -151 -200 -189 -63 -31 -79 -34 -184 -39 -268 -11
-430 87 -502 306 -29 89 -27 98 35 112 135 31 282 58 288 54 4 -2 22 -34 40
-70 19 -37 40 -69 47 -71 18 -8 82 28 83 47 1 8 0 31 -1 51 -3 64 15 69 231
69 103 0 194 -3 203 -6z"/>
<path d="M3528 3375 c-107 -67 -156 -78 -317 -73 -146 6 -197 20 -269 75 -50
37 -49 21 0 -22 75 -65 116 -78 262 -83 79 -3 150 0 182 7 52 12 140 62 199
115 44 38 20 30 -57 -19z"/>
<path d="M4252 4413 c-19 -4 -23 -10 -20 -36 l3 -32 135 -6 c120 -6 147 -11
239 -43 122 -42 141 -44 141 -15 0 24 -80 63 -180 86 -36 8 -100 24 -142 34
-74 18 -125 22 -176 12z"/>
<path d="M4299 4166 c-99 -41 -171 -100 -226 -185 -81 -123 -97 -174 -96 -317
0 -99 4 -134 23 -192 74 -233 398 -357 662 -254 178 69 291 199 318 365 13 82
13 205 -1 248 -39 123 -147 257 -247 304 -89 43 -147 55 -267 54 -92 0 -119
-4 -166 -23z m345 -40 c124 -47 192 -111 247 -232 60 -132 62 -306 4 -431 -44
-98 -161 -187 -286 -219 -83 -22 -250 -14 -331 14 -120 42 -221 135 -247 227
-28 103 -1 328 53 433 53 102 190 210 296 233 64 14 191 2 264 -25z"/>
</g>
</svg>